<svg width="800" height="800" viewBox="0 0 800 800" fill="none" xmlns="http://www.w3.org/2000/svg">
<path d="M224.955 382.219C291.04 386.56 357.296 389.899 399.85 389.899C442.57 389.899 508.656 386.56 574.741 382.219L578.911 281.001C522.674 280.33 460.258 280 399.85 280C339.437 280 277.022 280.33 220.95 281.001L224.955 382.219Z" fill="white"/>
<path d="M2.66839 365.181C4.34065 365.347 107.639 374.369 214.111 381.383L209.935 281.166C115.985 282.673 41.5535 285.011 27.0348 288.516C3.50452 294.193 0.335484 312.903 0 325.264C0 331.107 0 347.143 1.50194 365.181H2.66839Z" fill="white"/>
<path d="M585.59 381.548C692.227 374.369 795.36 365.347 797.027 365.181H798.364C799.866 347.143 799.866 331.107 799.695 325.264C799.53 312.903 796.191 294.193 772.661 288.516C758.312 285.011 683.716 282.673 589.76 281.166L585.59 381.548Z" fill="white"/>
<path d="M584.919 392.573L576.243 497.13C630.147 487.442 679.04 477.089 699.066 471.742C743.458 459.886 770.828 446.854 785.347 420.965C791.52 409.775 795.025 392.908 797.192 376.206C787.014 377.207 687.386 385.723 584.919 392.573Z" fill="white"/>
<path d="M574.075 393.243C508.155 397.584 442.405 400.923 399.85 400.923C357.296 400.923 291.541 397.584 225.791 393.243L234.637 498.967C296.717 509.992 363.303 519.514 399.85 519.514C436.397 519.514 502.983 509.992 565.063 498.967L574.075 393.243Z" fill="white"/>
<path d="M214.777 392.573C112.31 385.723 12.6812 377.207 2.66833 376.206C4.67092 392.908 8.34575 409.775 14.5187 420.965C28.8722 446.854 56.2374 459.886 100.63 471.742C120.821 477.089 169.553 487.442 223.623 497.13L214.777 392.573Z" fill="white"/>
</svg>
