<svg width="800" height="800" viewBox="0 0 800 800" fill="none" xmlns="http://www.w3.org/2000/svg">
<g clip-path="url(#clip0_228_158)">
<path opacity="0.992" fill-rule="evenodd" clip-rule="evenodd" d="M-0.223267 353C14.7406 353 29.7044 353 44.6681 353C44.6681 362.359 44.6681 371.719 44.6681 381.078C61.6085 381.078 78.5485 381.078 95.4889 381.078C95.4889 371.719 95.4889 362.359 95.4889 353C110.453 353 125.417 353 140.38 353C140.38 384.333 140.38 415.667 140.38 447C125.417 447 110.453 447 95.4889 447C95.4889 436.691 95.4889 426.382 95.4889 416.074C78.5485 416.074 61.6085 416.074 44.6681 416.074C44.6681 426.382 44.6681 436.691 44.6681 447C29.7044 447 14.7406 447 -0.223267 447C-0.223267 415.667 -0.223267 384.333 -0.223267 353Z" fill="white"/>
<path opacity="0.986" fill-rule="evenodd" clip-rule="evenodd" d="M228.476 353C244.851 353 261.226 353 277.602 353C297.618 384.277 317.523 415.61 337.316 447C320.941 447 304.566 447 288.19 447C268.396 415.61 248.491 384.277 228.476 353Z" fill="white"/>
<path opacity="0.987" fill-rule="evenodd" clip-rule="evenodd" d="M321.652 353C338.733 353 355.815 353 372.896 353C383.817 370.12 394.687 387.279 405.506 404.476C397.294 417.993 388.824 431.355 380.096 444.558C360.503 414.096 341.022 383.576 321.652 353Z" fill="white"/>
<path opacity="0.986" fill-rule="evenodd" clip-rule="evenodd" d="M443.196 353C459.571 353 475.947 353 492.322 353C472.306 384.277 452.404 415.61 432.608 447C416.233 447 399.858 447 383.482 447C403.207 415.567 423.11 384.233 443.196 353Z" fill="white"/>
<path opacity="0.986" fill-rule="evenodd" clip-rule="evenodd" d="M538.49 353C554.865 353 571.237 353 587.616 353C607.629 384.277 627.535 415.61 647.331 447C630.951 447 614.58 447 598.204 447C578.404 415.599 558.498 384.265 538.49 353Z" fill="white"/>
<path opacity="0.992" fill-rule="evenodd" clip-rule="evenodd" d="M673.596 353C688.559 353 703.526 353 718.49 353C718.49 372.668 718.49 392.336 718.49 412.004C745.592 412.004 772.698 412.004 799.8 412.004C799.8 423.67 799.8 435.335 799.8 447C757.735 447 715.665 447 673.596 447C673.596 415.667 673.596 384.333 673.596 353Z" fill="white"/>
<path opacity="0.983" fill-rule="evenodd" clip-rule="evenodd" d="M217.889 447.001C200.808 447.001 183.726 447.001 166.645 447.001C185.905 416.234 205.386 385.578 225.089 355.036C233.818 368.24 242.288 381.601 250.499 395.118C239.529 412.369 228.659 429.664 217.889 447.001Z" fill="white"/>
<path opacity="0.983" fill-rule="evenodd" clip-rule="evenodd" d="M527.477 447.001C510.539 447.001 493.6 447.001 476.657 447.001C495.951 416.301 515.363 385.646 534.89 355.036C543.592 368.302 552.135 381.662 560.51 395.118C549.58 412.469 538.571 429.764 527.477 447.001Z" fill="white"/>
</g>
<defs>
<clipPath id="clip0_228_158">
<rect width="800" height="800" fill="white"/>
</clipPath>
</defs>
</svg>
